<?xml version="1.0" standalone="no"?>
<!DOCTYPE svg PUBLIC "-//W3C//DTD SVG 20010904//EN"
 "http://www.w3.org/TR/2001/REC-SVG-20010904/DTD/svg10.dtd">
<svg version="1.0" xmlns="http://www.w3.org/2000/svg"
 width="500.000000pt" height="500.000000pt" viewBox="0 0 500.000000 500.000000"
 preserveAspectRatio="xMidYMid meet">
<metadata>
Created by potrace 1.11, written by Peter Selinger 2001-2013
</metadata>
<g transform="translate(0.000000,500.000000) scale(0.100000,-0.100000)"
fill="#000000" stroke="none">
<path d="M0 2500 l0 -2500 2500 0 2500 0 0 2500 0 2500 -2500 0 -2500 0 0
-2500z m1661 544 l544 -457 2 -121 3 -121 -560 -470 c-308 -259 -564 -470
-569 -470 -9 0 -151 173 -151 184 1 3 232 197 515 431 304 251 515 432 515
442 0 10 -199 181 -507 434 -280 230 -510 419 -512 420 -8 6 154 194 165 190
6 -2 256 -210 555 -462z m2589 -1854 l0 -110 -820 0 -820 0 0 110 0 110 820 0
820 0 0 -110z"/>
</g>
</svg>
