<?xml version="1.0" encoding="utf-8"?>
<!-- Generator: Adobe Illustrator 16.0.0, SVG Export Plug-In . SVG Version: 6.00 Build 0)  -->
<!DOCTYPE svg PUBLIC "-//W3C//DTD SVG 1.1//EN" "http://www.w3.org/Graphics/SVG/1.1/DTD/svg11.dtd">
<svg version="1.1" id="Layer_1" xmlns="http://www.w3.org/2000/svg" xmlns:xlink="http://www.w3.org/1999/xlink" x="0px" y="0px"
	 width="450px" height="148px" viewBox="192.445 211.14 450 148" enable-background="new 192.445 211.14 450 148"
	 xml:space="preserve">
<path d="M257.837,218.383c-33.215,0-60.141,26.926-60.141,60.14c0,1.08,0.031,2.153,0.088,3.219l-0.088-0.054v71.28l33.367-20.596
	c8.063,4.018,17.149,6.289,26.772,6.289c33.213,0,60.14-26.924,60.14-60.139C317.976,245.309,291.05,218.383,257.837,218.383z"/>
<path d="M451.583,218.383v60.101c0,0.013-0.002,0.025-0.002,0.039s0.002,0.026,0.002,0.039v5.171h0.238
	c2.644,30.772,28.443,54.931,59.9,54.931s57.258-24.156,59.899-54.931h0.24v-65.349L451.583,218.383L451.583,218.383z"/>
<path d="M381.76,218.384c-0.015,0-0.027-0.001-0.039-0.001c-0.015,0-0.025,0.001-0.039,0.001h-5.17v0.238
	c-30.773,2.642-54.931,28.443-54.931,59.901c0,31.457,24.156,57.258,54.931,59.9v0.238h65.35V218.384H381.76z"/>
<rect x="581.583" y="218.383" width="55.332" height="120.279"/>
</svg>
